<svg width="583" height="583" viewBox="0 0 583 583" fill="none" xmlns="http://www.w3.org/2000/svg">
<path d="M30 204.333H553M146.222 30V88.1111M436.778 30V88.1111M117.167 291.5H175.278M262.444 291.5H320.556M407.722 291.5H465.833M117.167 378.667H175.278M262.444 378.667H320.556M407.722 378.667H465.833M117.167 465.833H175.278M262.444 465.833H320.556M407.722 465.833H465.833M122.978 553H460.022C492.567 553 508.841 553 521.271 546.666C532.205 541.096 541.096 532.205 546.666 521.271C553 508.841 553 492.567 553 460.022V181.089C553 148.543 553 132.271 546.666 119.84C541.096 108.906 532.205 100.016 521.271 94.4449C508.841 88.1111 492.567 88.1111 460.022 88.1111H122.978C90.4326 88.1111 74.1598 88.1111 61.7292 94.4449C50.7948 100.016 41.9049 108.906 36.3338 119.84C30 132.271 30 148.543 30 181.089V460.022C30 492.567 30 508.841 36.3338 521.271C41.9049 532.205 50.7948 541.096 61.7292 546.666C74.1598 553 90.4324 553 122.978 553Z" stroke="#F5F5F5" stroke-width="58.1111" stroke-linecap="round"/>
</svg>
