<svg width="355" height="355" viewBox="0 0 355 355" fill="none" xmlns="http://www.w3.org/2000/svg">
<path d="M18 124.333H337M88.8889 18V53.4444M266.111 18V53.4444M71.1667 177.5H106.611M159.778 177.5H195.222M248.389 177.5H283.833M71.1667 230.667H106.611M159.778 230.667H195.222M248.389 230.667H283.833M71.1667 283.833H106.611M159.778 283.833H195.222M248.389 283.833H283.833M74.7111 337H280.289C300.14 337 310.066 337 317.647 333.137C324.316 329.739 329.739 324.316 333.137 317.647C337 310.066 337 300.14 337 280.289V110.156C337 90.3047 337 80.3794 333.137 72.7975C329.739 66.1281 324.316 60.7058 317.647 57.3077C310.066 53.4444 300.14 53.4444 280.289 53.4444H74.7111C54.8604 53.4444 44.9349 53.4444 37.353 57.3077C30.6836 60.7058 25.2613 66.1281 21.8633 72.7975C18 80.3794 18 90.3047 18 110.156V280.289C18 300.14 18 310.066 21.8633 317.647C25.2613 324.316 30.6836 329.739 37.353 333.137C44.9349 337 54.8603 337 74.7111 337Z" stroke="#003366" stroke-width="35.4444" stroke-linecap="round"/>
</svg>
